# xmcd
#
# Track frame offsets:
# 150
# 21380
# 44945
# 54720
# 73427
# 94985
# 117165
# 133432
# 143430
# 173962
# 182887
# 192952
#
# Disc length: 2638 seconds
#
#
# Revision: 0
# Processed by: cddbd v1.5.2PL0 Copyright (c) Steve Scherf et al.
# Submitted via: FreeRIP 2.951 
#
DISCID=c50a4c0c
DTITLE=Aquarela Carioca - Contos
DYEAR=1991
DGENRE=Acoustic
TTITLE0=Abertura (P. Muylaert, L. Coimbra, M. Suzano)
TTITLE1=Kashmir (Bonham, Jimmy Page, Robert Plant) Voz Lenine
TTITLE2=Acalanto para Pedro Felipe (M. Sève)
TTITLE3=O Canto do Cisne Negro (H. Villa-Lobos)
TTITLE4=Malmequer (N. Teixeira, C. de Alencar) Ney Matogrosso
TTITLE5=Jóia (C. Veloso)
TTITLE6=Mahamuni (L. Coimbra)
TTITLE7=Mundo Animal (M. Suzano)
TTITLE8=Motim Blues (P. Muylaert)
TTITLE9=Circos (P. Muylaert)
TTITLE10=Samba no Pé (M. Sève)
TTITLE11=Mercado Brasileiro (P. Muylaert)
EXTD=by Gregório Malaquias
EXTT0=
EXTT1=
EXTT2=
EXTT3=
EXTT4=
EXTT5=
EXTT6=
EXTT7=
EXTT8=
EXTT9=
EXTT10=
EXTT11=
PLAYORDER=
